<svg xmlns="http://www.w3.org/2000/svg" version="1.1" xmlns:xlink="http://www.w3.org/1999/xlink" xmlns:svgjs="http://svgjs.com/svgjs" width="1440" height="560" preserveAspectRatio="none" viewBox="0 0 1440 560"><g mask="url(&quot;#SvgjsMask1009&quot;)" fill="none"><path d="M1488 560L0 560 L0 363.89Q65.98 309.87, 120 375.84Q171.87 355.71, 192 407.58Q243.92 339.5, 312 391.41Q348.27 307.69, 432 343.96Q483.5 323.45, 504 374.95Q580.94 331.89, 624 408.84Q674.71 339.55, 744 390.26Q760.74 335, 816 351.73Q864.97 328.7, 888 377.66Q935.47 353.13, 960 400.6Q1001.89 322.49, 1080 364.38Q1108.3 320.68, 1152 348.97Q1208.67 333.64, 1224 390.31Q1268.81 315.12, 1344 359.92Q1403.55 347.47, 1416 407.02Q1418.83 337.85, 1488 340.68z" fill="#182f5d"></path><path d="M1512 560L0 560 L0 443.96Q52.29 376.25, 120 428.54Q194.32 382.87, 240 457.19Q246.71 391.9, 312 398.61Q381.31 347.93, 432 417.24Q487.84 401.08, 504 456.91Q510.21 391.13, 576 397.34Q618.48 367.82, 648 410.3Q729.01 371.31, 768 452.32Q833.49 397.81, 888 463.29Q935.97 391.26, 1008 439.24Q1021.27 380.51, 1080 393.78Q1150.49 344.27, 1200 414.77Q1285.1 379.87, 1320 464.96Q1343.87 416.83, 1392 440.7Q1444.4 373.11, 1512 425.51z" fill="#25467d"></path><path d="M1464 560L0 560 L0 459.42Q39.71 427.13, 72 466.84Q150.43 425.26, 192 503.69Q260.43 452.12, 312 520.55Q354.91 443.46, 432 486.37Q480.52 414.89, 552 463.41Q640.6 432.01, 672 520.61Q689.4 466.01, 744 483.41Q789.14 456.56, 816 501.7Q860.2 473.89, 888 518.09Q901.05 459.14, 960 472.2Q1003.51 443.72, 1032 487.23Q1075.05 410.28, 1152 453.33Q1245.7 427.03, 1272 520.74Q1304.64 433.38, 1392 466.02Q1443.71 445.73, 1464 497.44z" fill="#356cb1"></path><path d="M1512 560L0 560 L0 581.32Q10.52 519.85, 72 530.37Q101.96 488.33, 144 518.28Q233.59 487.87, 264 577.46Q290.96 532.42, 336 559.38Q364.77 516.15, 408 544.92Q454.37 471.29, 528 517.66Q582.71 500.37, 600 555.08Q624.52 507.6, 672 532.12Q698.59 486.71, 744 513.31Q801.03 498.34, 816 555.36Q838.56 505.92, 888 528.48Q915.46 483.94, 960 511.4Q1041.93 473.33, 1080 555.26Q1132.15 487.41, 1200 539.56Q1247.71 467.27, 1320 514.98Q1380.01 502.99, 1392 563Q1459.74 510.75, 1512 578.49z" fill="white"></path></g><defs><mask id="SvgjsMask1009"><rect width="1440" height="560" fill="#ffffff"></rect></mask></defs></svg>